<?xml version="1.0" encoding="UTF-8"?><svg id="Layer_2" xmlns="http://www.w3.org/2000/svg" viewBox="0 0 25 25.02"><defs><style>.cls-1{fill:#fff;}</style></defs><g id="Layer_1-2"><g><path class="cls-1" d="M10.29,16.05c-.07,.1-.13,.2-.21,.28-2.74,2.75-5.49,5.5-8.24,8.25-.13,.13-.28,.25-.44,.34-.43,.23-.92,.1-1.23-.31-.27-.35-.24-.86,.07-1.2,.07-.08,.15-.16,.23-.24,2.74-2.74,5.47-5.49,8.21-8.23,.08-.08,.18-.13,.28-.2-1.79-2.38-2.41-4.96-1.76-7.79,.53-2.29,1.81-4.1,3.76-5.41,3.66-2.45,8.45-1.89,11.45,1.18,3.36,3.44,3.31,8.59,.56,12.01-2.84,3.53-8.41,4.65-12.69,1.33Zm12.74-7.03c0-3.9-3.19-7.07-7.06-7.04-3.9,.03-7.02,3.15-7.04,7.04-.01,3.88,3.16,7.05,7.05,7.06,3.88,0,7.06-3.17,7.05-7.05Z"/><path class="cls-1" d="M10.67,9.31c.05-3.32,3.13-6,6.42-5.59,.32,.04,.64,.1,.95,.19,.5,.15,.79,.67,.67,1.16-.12,.5-.6,.82-1.12,.73-.61-.11-1.22-.2-1.84-.08-1.81,.36-3.11,1.91-3.12,3.77,0,.31,0,.61-.2,.87-.25,.33-.62,.47-1.03,.37-.4-.1-.68-.4-.73-.81-.02-.2,0-.41,0-.61Z"/></g></g></svg>